<svg width="150" height="150" viewBox="0 0 150 150" fill="none" xmlns="http://www.w3.org/2000/svg">
<path d="M84.7605 80.0554C84.7414 79.8099 84.5289 79.6236 84.2805 79.6474L44.2937 82.8931L41.4708 48.7055C41.451 48.4606 41.2288 48.2818 40.9902 48.298C40.7447 48.3183 40.5625 48.5331 40.5828 48.7786L43.4056 82.9652L36.6593 83.5128C36.4138 83.5325 36.231 83.7473 36.2513 83.9928C36.2699 84.2261 36.4649 84.4025 36.6947 84.4025C36.7069 84.4025 36.7191 84.4019 36.7313 84.4008L43.4789 83.8531L44.1377 91.831C44.1568 92.0637 44.3518 92.2402 44.5811 92.2402C44.5933 92.2402 44.606 92.2396 44.6182 92.2384C44.8637 92.2181 45.046 92.0034 45.0257 91.7579L44.367 83.781L84.3525 80.5354C84.598 80.5156 84.7808 80.3009 84.7605 80.0554Z" fill="#34343F"/>
<path d="M47.9027 78.9584C48.013 79.9131 48.8255 80.6183 49.7634 80.6183C49.8348 80.6183 49.9074 80.6142 49.9799 80.6061L54.218 80.1185C54.7154 80.0616 55.1611 79.8138 55.4722 79.4221C55.7838 79.0297 55.9237 78.5393 55.8663 78.0419L53.3839 56.4629C53.327 55.9655 53.0792 55.5204 52.6869 55.2087C52.2957 54.8982 51.8105 54.7612 51.3073 54.8146L47.0687 55.3022C46.0414 55.4206 45.3025 56.3527 45.4209 57.3794L47.9027 78.9584ZM47.1708 56.1878L51.4094 55.7003C51.4472 55.6956 51.4855 55.6939 51.5232 55.6939C51.7443 55.6939 51.9573 55.7676 52.1332 55.9069C52.3386 56.0705 52.4681 56.3039 52.4982 56.565L54.9806 78.144C55.0108 78.4046 54.9376 78.6617 54.774 78.8672C54.6109 79.0732 54.377 79.2026 54.1158 79.2328L49.8778 79.7203C49.3433 79.7859 48.8511 79.3953 48.7884 78.8561L46.3067 57.2771C46.2445 56.7386 46.6322 56.2499 47.1708 56.1878Z" fill="#34343F"/>
<path d="M73.8195 63.181L69.5809 63.6685C69.0835 63.7254 68.6383 63.9732 68.3267 64.3656C68.0156 64.7573 67.8757 65.2472 67.9326 65.7452L69.1386 76.2282C69.1955 76.7256 69.4433 77.1708 69.8357 77.4824C70.1706 77.7482 70.5768 77.8887 70.9982 77.8887C71.0701 77.8887 71.1427 77.8847 71.2158 77.8765L75.4539 77.389C75.9513 77.3321 76.3964 77.0843 76.7081 76.6919C77.0192 76.2996 77.1591 75.8097 77.1022 75.3117L75.8962 64.8293C75.8393 64.3319 75.5915 63.8867 75.1997 63.575C74.8067 63.2634 74.3169 63.1212 73.8195 63.181ZM75.0105 64.9315L76.2165 75.4139C76.2786 75.9525 75.8903 76.4418 75.3517 76.5033L71.1137 76.9909C70.5728 77.0553 70.0858 76.6647 70.0243 76.1261L68.8182 65.643C68.788 65.3824 68.8618 65.1253 69.0248 64.9193C69.1885 64.7138 69.4218 64.5844 69.683 64.5542L73.9216 64.0667C73.9599 64.0621 73.9982 64.0603 74.0359 64.0603C74.2571 64.0603 74.4695 64.134 74.6448 64.2733C74.8508 64.4364 74.9803 64.6703 75.0105 64.9315Z" fill="#34343F"/>
<path d="M63.3288 59.9922L59 60.4902C58.2409 60.5775 57.6963 61.2637 57.7836 62.0228L59.5119 77.0471C59.5992 77.8062 60.2854 78.3508 61.0445 78.2634L65.3733 77.7655C66.1324 77.6782 66.677 76.992 66.5897 76.2329L64.8614 61.2086C64.7741 60.4495 64.0879 59.9049 63.3288 59.9922Z" fill="#34343F"/>
<path d="M62.5755 96.6656C63.059 96.8368 63.5088 97.1474 63.9847 97.4759C64.7595 98.011 65.5506 98.556 66.5739 98.5293C67.8316 98.4852 68.6586 97.5896 69.4584 96.7237C69.9651 96.1752 70.4886 95.6087 71.0951 95.3075C72.4144 94.6505 73.9269 95.2251 75.5282 95.8316C75.9716 95.9994 76.4121 96.1665 76.8457 96.3046C80.2566 97.3975 84.6984 96.2321 85.8754 92.7602C85.9549 92.5269 85.8296 92.2738 85.5968 92.1949C85.3629 92.1136 85.1099 92.2401 85.0315 92.4735C84.0379 95.4056 80.0639 96.3993 77.1173 95.4561C76.6982 95.3221 76.2728 95.1601 75.8439 94.9976C74.1358 94.3511 72.3685 93.6807 70.6993 94.5089C69.9448 94.8833 69.3649 95.5113 68.8037 96.1184C68.0968 96.8839 67.4288 97.6071 66.5425 97.6378C65.8327 97.6814 65.1774 97.2153 64.4914 96.7423C63.9882 96.3952 63.4682 96.0359 62.8733 95.8253C61.6957 95.4086 60.4385 95.6483 59.3642 95.9361C57.1848 96.5235 55.1105 97.4312 53.1999 98.635C52.9915 98.7661 52.9288 99.0412 53.06 99.2496C53.1448 99.3843 53.2899 99.458 53.4379 99.458C53.5191 99.458 53.601 99.4359 53.6747 99.3895C55.5105 98.2333 57.5024 97.361 59.5958 96.7974C60.5389 96.5443 61.6289 96.3302 62.5755 96.6656Z" fill="#34343F"/>
<path d="M66.4863 108.112C66.8937 108.477 67.3157 108.854 67.8676 109.067C69.318 109.628 70.8195 108.774 71.8224 107.959C72 107.815 72.1765 107.666 72.3535 107.515C73.1544 106.835 73.9112 106.193 74.8335 106.01C75.3007 105.921 75.7917 105.952 76.3112 105.986C76.7523 106.016 77.2067 106.046 77.6693 105.999C78.4215 105.924 79.1522 105.546 79.5753 105.014C79.88 104.63 80.0106 104.187 79.9525 103.736C79.9206 103.491 79.6896 103.316 79.4534 103.351C79.209 103.382 79.0367 103.606 79.068 103.85C79.0953 104.06 79.0308 104.265 78.877 104.459C78.6071 104.799 78.0854 105.062 77.5804 105.113C77.1927 105.151 76.794 105.125 76.3709 105.096C75.8149 105.061 75.242 105.022 74.6605 105.136C73.5113 105.363 72.6291 106.111 71.7765 106.836C71.6047 106.982 71.4329 107.127 71.2606 107.268C70.5885 107.813 69.296 108.66 68.1891 108.236C67.7887 108.081 67.4445 107.773 67.08 107.447C66.9291 107.313 66.7782 107.178 66.6226 107.052C65.2041 105.906 63.2918 105.46 61.5157 105.853C59.7357 106.248 58.1953 107.461 57.3944 109.099C57.2864 109.32 57.3781 109.587 57.5993 109.695C57.662 109.726 57.7287 109.741 57.7943 109.741C57.9597 109.741 58.1181 109.649 58.1953 109.49C58.868 108.116 60.2139 107.055 61.7084 106.724C63.2058 106.393 64.8727 106.784 66.0625 107.746C66.2071 107.863 66.3464 107.987 66.4863 108.112Z" fill="#34343F"/>
<path d="M51.2923 48.2637C51.1954 48.4901 51.2998 48.7518 51.5262 48.8493L73.5985 58.3312C73.656 58.3556 73.7152 58.3672 73.7744 58.3672C73.9468 58.3672 74.1116 58.2662 74.1841 58.0973C74.2811 57.871 74.1766 57.6092 73.9502 57.5117L51.8779 48.0298C51.6533 47.9341 51.3892 48.0368 51.2923 48.2637Z" fill="#34343F"/>
<path d="M49.63 51.7636C49.6869 51.958 49.8645 52.0845 50.0577 52.0845C50.0989 52.0845 50.1407 52.0787 50.1825 52.0665C50.4187 51.998 50.5546 51.7502 50.4855 51.514L49.1303 46.8674L54.5529 45.6793C54.7937 45.6265 54.9458 45.3891 54.893 45.1488C54.8407 44.908 54.5987 44.7565 54.3625 44.8087L48.4738 46.0989C48.3531 46.125 48.2486 46.2005 48.1859 46.3067C48.1227 46.4129 48.1064 46.5406 48.1412 46.659L49.63 51.7636Z" fill="#34343F"/>
<path d="M112.926 99.3812C112.996 99.5565 113.164 99.6627 113.341 99.6627C113.395 99.6627 113.451 99.6529 113.505 99.6314C114.026 99.4248 114.554 99.2326 115.08 99.0375C115.197 99.2667 115.336 99.4808 115.517 99.6523C115.896 100.01 116.404 100.202 116.899 100.202C117.154 100.202 117.406 100.151 117.635 100.045C118.292 99.7416 118.751 99.019 118.894 98.0626C118.91 97.9529 118.914 97.8412 118.924 97.7305C119.69 97.4934 120.459 97.2681 121.23 97.0563C121.223 97.093 121.223 97.131 121.213 97.167C121.08 97.6563 120.715 98.0777 120.259 98.2669C120.032 98.3609 119.924 98.6221 120.019 98.8496C120.113 99.0771 120.373 99.1845 120.602 99.0899C121.317 98.7927 121.867 98.1612 122.074 97.4004C122.126 97.2084 122.152 97.0103 122.159 96.8107C122.472 96.7291 122.784 96.6395 123.097 96.5623C123.336 96.5031 123.482 96.2616 123.424 96.0225C123.364 95.7834 123.124 95.6406 122.884 95.6963C122.599 95.7666 122.315 95.8484 122.031 95.9221C121.955 95.671 121.856 95.4263 121.711 95.2059C121.296 94.5774 120.652 94.2088 120.007 94.2465C119.101 94.2993 118.476 95.1072 118.258 95.885C118.149 96.277 118.117 96.6684 118.091 97.0506C117.285 97.3072 116.483 97.5775 115.687 97.8608C115.687 97.8254 115.68 97.7913 115.682 97.7556C115.697 97.477 115.772 97.1972 115.898 96.9483C116.008 96.7283 115.92 96.4602 115.7 96.3493C115.48 96.2379 115.212 96.3273 115.101 96.5467C114.921 96.9054 114.814 97.3064 114.792 97.7069C114.783 97.8684 114.796 98.0277 114.815 98.1848C114.267 98.3874 113.718 98.5878 113.177 98.8027C112.947 98.8937 112.836 99.1526 112.926 99.3812ZM119.117 96.1252C119.245 95.6679 119.594 95.1635 120.06 95.1368C120.387 95.1113 120.73 95.3382 120.967 95.6969C121.059 95.8368 121.124 95.9907 121.175 96.1488C120.449 96.3458 119.727 96.5553 119.007 96.7744C119.029 96.5503 119.059 96.3319 119.117 96.1252ZM117.993 98.0207C117.933 98.3625 117.76 99.0057 117.261 99.2361C116.916 99.394 116.44 99.2982 116.13 99.0046C116.046 98.9246 115.974 98.8291 115.912 98.7257C116.601 98.4796 117.296 98.2465 117.993 98.0207Z" fill="#34343F"/>
<path d="M124.533 101.042C124.522 101.008 124.524 100.974 124.521 100.94C123.172 101.854 121.54 102.65 119.718 103.228C117.79 103.839 115.899 104.122 114.195 104.123C114.201 104.141 114.213 104.156 114.217 104.175L115.123 108.861C115.273 108.865 115.418 108.881 115.57 108.881C117.389 108.881 119.362 108.561 121.323 107.942C123.069 107.386 124.679 106.622 126.067 105.717C126.056 105.695 126.033 105.683 126.025 105.659L124.533 101.042Z" fill="#34343F"/>
<path d="M130.511 98.0174C130.485 97.9307 129.921 96.2575 129.295 94.6662C129.265 94.4951 129.234 94.3239 129.181 94.156C129.039 93.7094 128.824 93.2995 128.545 92.9276C128.361 92.5857 128.098 92.318 127.754 92.1265C125.412 90.2007 120.829 89.7952 115.95 91.3422C110.937 92.9316 107.363 96.0248 106.69 99.0234C106.699 98.8392 106.687 98.6635 106.659 98.4967C106.567 97.9459 106.266 97.4329 105.765 96.972C105.73 96.9397 105.683 96.9334 105.641 96.9145C105.613 96.9014 105.592 96.8837 105.561 96.8769C105.47 96.8562 105.378 96.8619 105.289 96.899C105.285 96.9008 105.28 96.8981 105.276 96.9C105.274 96.9008 105.273 96.9013 105.271 96.9021C105.267 96.9039 105.263 96.9022 105.259 96.9041L105.239 96.9145C103.827 97.5544 102.496 97.7536 101.294 97.5063C98.6435 96.9714 96.5515 94.392 94.8993 90.517C95.2321 90.5764 95.5768 90.624 95.9334 90.6597L94.9944 85.3108V85.2514C93.568 85.1563 92.2724 84.8353 91.2264 84.3005C89.9664 83.6467 89.1343 82.7077 88.8015 81.5665C87.7555 77.9293 91.9039 73.2342 98.0492 71.0946C100.046 70.3933 102.079 70.0486 103.933 70.0486C105.716 70.0486 107.344 70.3695 108.616 71.0352C109.864 71.6771 110.708 72.628 111.041 73.769C111.695 76.0275 110.328 78.7019 107.725 80.9128L109.211 86.5469C111.885 84.4312 113.513 81.828 113.513 79.427C113.513 78.9634 113.454 78.4999 113.323 78.0601C112.765 76.1939 112.337 74.9458 111.992 74.0068C111.956 73.8403 111.933 73.674 111.897 73.5195C111.766 73.0797 111.552 72.6636 111.303 72.2714C111.291 72.2476 111.279 72.2119 111.267 72.1882C111.065 71.7008 110.72 71.3324 110.268 71.0946C109.9 70.7737 109.496 70.4766 109.02 70.2388C106.191 68.7768 101.984 68.7768 97.7521 70.2507C96.4203 70.7148 95.1843 71.3023 94.0595 71.9709L92.5815 33.9971C92.4983 32.1428 91.0006 30.6926 89.1463 30.6926H89.1344L72.5941 30.7634C70.1505 28.7869 67.0119 27.6514 63.6736 27.7448L63.4419 27.7526C63.6508 27.3307 63.8315 26.8907 63.9512 26.4178C63.9518 26.4178 63.9517 26.4172 63.9517 26.4172C64.9088 22.6348 62.4648 18.7415 58.503 17.738C54.5418 16.7345 50.54 18.9969 49.5818 22.7799C49.1175 24.6162 49.4303 26.531 50.464 28.1723C50.4675 28.178 50.4725 28.1823 50.4761 28.188L46.3313 28.3272C43.8309 28.4137 41.5832 29.3767 39.8708 30.9034L22.4871 30.9778C22.4541 30.9778 22.4229 30.9902 22.3908 30.9976C22.3791 31.0001 22.367 31.0013 22.3556 31.0048C22.3085 31.0197 22.2673 31.0449 22.2273 31.076C22.2155 31.0847 22.2013 31.0866 22.19 31.0967L20.6685 32.4636C19.7651 33.2838 19.2659 34.4487 19.3016 35.673L22.5109 129.421C22.5465 130.408 23.2122 131.288 24.1513 131.608L25.0379 131.909L25.0427 132.072C25.0427 132.191 25.0902 132.298 25.1854 132.381C25.2686 132.464 25.3755 132.5 25.4825 132.5C25.4944 132.5 25.5062 132.5 25.5062 132.5L47.199 131.204L92.7598 128.482C94.0231 128.404 95.0918 127.655 95.6645 126.609C97.5291 127.265 99.3758 127.665 101.114 127.811L103.072 122.536C103.08 122.516 103.095 122.502 103.105 122.483C101.194 122.35 99.1078 121.9 97.0039 121.106C94.7783 120.265 92.8273 119.145 91.2596 117.9C91.2591 117.901 91.2591 117.902 91.2586 117.903L88.7559 122.744C90.3895 124.133 92.4613 125.37 94.8329 126.302C94.3895 127.03 93.6079 127.539 92.7003 127.591L25.9104 131.585L22.9506 31.8694L38.986 31.8002C38.1337 32.7784 37.4729 33.919 37.0571 35.1738L31.0572 35.2808C29.8566 35.3046 28.8819 36.208 28.7868 37.3966C27.5982 52.1476 28.4065 66.982 31.176 81.4952C33.589 94.1186 37.4996 106.481 42.7891 118.236C43.6687 120.174 45.6062 121.434 47.6982 121.434C47.8171 121.434 47.9478 121.422 48.0667 121.422C60.5804 120.539 72.365 117.525 83.2024 112.441C84.1961 112.076 85.1362 111.723 86.0497 111.376C85.2831 113.321 85.1724 114.353 85.1049 114.421C84.2143 116.781 85.4533 119.639 88.0716 122.128L90.4669 117.494C90.4982 117.433 90.5429 117.385 90.5936 117.346C88.2322 115.262 86.974 112.898 87.3493 110.877C90.9957 109.465 93.9783 108.196 96.4072 107.055C98.1253 107.24 99.963 107.668 101.815 108.367C105.036 109.583 107.798 111.412 109.593 113.516C111.325 115.548 111.935 117.577 111.311 119.23C110.469 121.459 107.575 122.607 103.898 122.52C103.941 122.621 103.949 122.736 103.908 122.847L102.048 127.858C102.243 127.865 102.446 127.888 102.637 127.888C106.548 127.888 109.638 126.533 110.577 124.037C110.613 123.948 111.319 121.964 111.904 120.015C111.985 119.859 112.081 119.712 112.144 119.546C112.319 119.084 112.409 118.599 112.43 118.101C112.43 118.099 112.431 118.096 112.432 118.094C112.547 117.598 112.496 117.11 112.277 116.638C111.994 115.433 111.329 114.178 110.271 112.938C108.381 110.721 105.489 108.802 102.13 107.533C100.678 106.985 99.2325 106.605 97.8355 106.368C104.224 103.213 106.208 101.084 106.607 99.5453C106.543 100.129 106.58 100.707 106.756 101.264C106.757 101.267 106.759 101.27 106.76 101.273C106.851 101.694 107.285 103.51 108.081 105.102C108.093 105.114 108.093 105.126 108.093 105.126C108.64 106.873 110.364 108.121 112.919 108.632C113.334 108.715 113.765 108.777 114.207 108.819L113.341 104.344C113.325 104.258 113.341 104.176 113.371 104.1C110.429 103.93 108.191 102.842 107.606 100.995C106.642 97.9524 110.506 94.0034 116.22 92.192C118.148 91.5808 120.045 91.29 121.749 91.29C125.092 91.29 127.692 92.4096 128.331 94.4253C128.94 96.3456 127.622 98.6255 125.134 100.502C125.247 100.552 125.34 100.642 125.381 100.768L126.813 105.199C127.468 104.717 128.068 104.206 128.585 103.664C130.38 101.774 131.07 99.7647 130.511 98.0174ZM57.4524 21.2686C58.225 21.4647 58.8773 21.936 59.2894 22.5971C59.698 23.2523 59.821 24.0161 59.6359 24.7468L59.6353 24.7474C59.4507 25.4781 58.9789 26.091 58.3079 26.4729C57.6312 26.8595 56.832 26.9634 56.0606 26.7672C55.2881 26.5716 54.6358 26.1003 54.2237 25.4392C53.8151 24.784 53.692 24.0202 53.8778 23.2889C54.0623 22.5582 54.5342 21.9453 55.2052 21.5634C55.659 21.3045 56.168 21.1728 56.6863 21.1728C56.9411 21.1728 57.1982 21.2047 57.4524 21.2686ZM57.4926 19.769C57.445 20.0067 57.2193 20.1731 56.9815 20.1375C56.7676 20.1019 54.949 19.8522 53.6296 21.2311C52.5955 22.3008 52.5717 23.6559 52.5955 24.0363C52.6073 24.2858 52.4171 24.4999 52.1676 24.5117C52.1557 24.5117 52.1556 24.5117 52.1437 24.5117C51.906 24.5117 51.7158 24.3215 51.7039 24.0838C51.6801 23.6084 51.7039 21.9442 52.9758 20.613C54.6161 18.9132 56.8626 19.2104 57.1241 19.2579C57.3619 19.2936 57.5282 19.5312 57.4926 19.769ZM89.1343 31.5841C89.1462 31.5841 89.1462 31.5841 89.1462 31.5841C90.5131 31.5841 91.6304 32.6539 91.6899 34.0208L93.1912 72.5151C92.3465 73.0816 91.586 73.6976 90.9139 74.3446C88.9991 61.2473 88.7068 45.7492 88.7421 36.6121C88.7421 35.994 88.5043 35.4116 88.0526 34.9718C87.6128 34.532 87.0304 34.3299 86.3885 34.3061L75.7725 34.4943C75.1744 33.4438 74.4358 32.4915 73.5856 31.6511L89.1343 31.5841ZM72.2556 34.9123C72.2556 35.15 72.0654 35.3521 71.8157 35.3521L44.4413 35.3759C44.1916 35.3759 43.9896 35.1738 43.9896 34.9242C43.9896 34.6864 44.1916 34.4844 44.4294 34.4844L71.8157 34.4606C72.0654 34.4606 72.2556 34.6627 72.2556 34.9123ZM48.0072 120.53C46.1529 120.649 44.3818 119.591 43.5973 117.868C38.3435 106.183 34.4566 93.8928 32.0556 81.3289C29.2979 66.8988 28.5015 52.1358 29.6783 37.4679C29.7259 36.7429 30.332 36.1842 31.069 36.1723L36.8066 36.0743C36.642 36.7944 36.547 37.541 36.5487 38.3119C36.5487 38.4307 36.5962 38.5495 36.6794 38.6328C36.7626 38.716 36.8696 38.7636 36.9885 38.7636L76.7129 38.5139C76.8437 38.5139 76.9745 38.4426 77.0576 38.3475C77.1409 38.2405 77.1765 38.0979 77.1408 37.9671C76.929 37.0562 76.6134 36.1928 76.2261 35.3727L86.4004 35.1976C86.757 35.1976 87.1611 35.3402 87.4345 35.6017C87.7079 35.875 87.8505 36.2317 87.8505 36.6121C87.8154 47.7295 88.2107 62.7326 90.1109 75.1799C88.2413 77.3037 87.3609 79.6729 87.9337 81.7567C87.9337 81.7686 87.9337 81.7686 87.9337 81.7805C88.0169 82.1846 88.4924 84.3955 89.3601 86.3093C89.3601 86.3211 89.372 86.3449 89.372 86.3568C89.9747 88.4132 91.8244 89.7179 93.8532 90.2674C93.8651 90.2912 93.877 90.3149 93.877 90.3387C95.2703 93.7147 97.5404 97.664 101.116 98.3858C101.459 98.4556 101.815 98.484 102.176 98.4918L64.8274 117.729C64.7168 117.786 64.6478 117.884 64.6137 117.995C59.244 119.282 53.7016 120.129 48.0072 120.53Z" fill="#34343F"/>
<path d="M101.081 116.966C100.844 116.898 100.598 117.037 100.532 117.274C100.465 117.511 100.602 117.757 100.84 117.824C101.088 117.894 101.344 117.928 101.6 117.928C102.215 117.928 102.831 117.73 103.34 117.353C103.535 117.208 103.706 117.033 103.86 116.844C104.224 117.003 104.591 117.153 104.952 117.317C105.012 117.344 105.074 117.357 105.136 117.357C105.306 117.357 105.468 117.26 105.542 117.096C105.644 116.871 105.545 116.607 105.321 116.506C104.988 116.355 104.649 116.216 104.313 116.069C104.438 115.772 104.532 115.462 104.56 115.14C104.632 114.292 104.312 113.511 103.727 113.102C102.89 112.516 101.77 112.798 101.033 113.337C100.641 113.622 100.323 113.968 100.016 114.308C99.0499 113.944 98.0783 113.595 97.1012 113.266C97.1452 113.204 97.1829 113.139 97.2338 113.082C97.4555 112.83 97.733 112.622 98.0365 112.481C98.2594 112.376 98.3557 112.111 98.2519 111.888C98.1468 111.665 97.8804 111.568 97.6593 111.673C97.2455 111.866 96.867 112.149 96.5652 112.492C96.4304 112.645 96.3149 112.81 96.215 112.982C95.5522 112.767 94.8898 112.549 94.2239 112.35C93.9813 112.276 93.7393 112.414 93.6691 112.65C93.5988 112.886 93.7329 113.134 93.9686 113.205C94.6141 113.397 95.2563 113.609 95.8989 113.817C95.8303 114.124 95.7991 114.433 95.8426 114.733C95.9715 115.614 96.6279 116.364 97.4387 116.558C98.2321 116.747 99.148 116.425 99.9501 115.671C100.055 115.573 100.149 115.462 100.249 115.358C101.17 115.712 102.084 116.082 102.991 116.467C102.931 116.524 102.875 116.588 102.809 116.637C102.317 117.001 101.656 117.127 101.081 116.966ZM101.557 114.058C102.024 113.717 102.742 113.502 103.216 113.833C103.537 114.057 103.716 114.541 103.672 115.064C103.652 115.291 103.587 115.508 103.501 115.716C102.643 115.35 101.778 114.998 100.906 114.659C101.114 114.438 101.324 114.228 101.557 114.058ZM99.3395 115.022C99.0656 115.279 98.3488 115.858 97.6465 115.691C97.1886 115.581 96.8009 115.124 96.7249 114.604C96.7004 114.436 96.715 114.261 96.7463 114.086C97.6188 114.379 98.4868 114.689 99.3506 115.011C99.3468 115.014 99.3434 115.019 99.3395 115.022Z" fill="#34343F"/>
<path d="M103.505 89.6256C105.347 88.9837 107.011 88.116 108.438 87.1176L106.952 81.5309C105.502 82.6245 103.743 83.5635 101.793 84.241C99.7846 84.9423 97.752 85.287 95.8977 85.287L96.8486 90.7191C98.2545 90.8273 100.884 90.5385 103.505 89.6256Z" fill="#34343F"/>
<path d="M94.5577 79.6178C94.6308 79.7855 94.7945 79.8853 94.9663 79.8853C95.0261 79.8853 95.0864 79.8737 95.1445 79.8482C95.7029 79.6046 96.2694 79.3776 96.8342 79.1475C96.9573 79.4211 97.1067 79.6761 97.3024 79.8795C97.704 80.2974 98.2438 80.5214 98.7719 80.5214C99.0459 80.5214 99.3175 80.4611 99.5642 80.3351C100.504 79.8569 100.791 78.7071 100.878 78.064C100.898 77.9176 100.904 77.7686 100.916 77.6207C101.758 77.3334 102.604 77.0613 103.454 76.8054C103.443 76.8898 103.439 76.9755 103.419 77.0576C103.271 77.6578 102.868 78.1726 102.369 78.4001C102.145 78.5022 102.046 78.7669 102.148 78.9909C102.251 79.215 102.515 79.313 102.739 79.2115C103.492 78.8679 104.069 78.1424 104.285 77.2712C104.343 77.0333 104.366 76.787 104.368 76.5392C104.716 76.4394 105.062 76.3302 105.411 76.2358C105.648 76.1714 105.788 75.9271 105.724 75.6891C105.66 75.4523 105.415 75.3112 105.177 75.3757C104.868 75.4595 104.561 75.557 104.252 75.6451C104.173 75.341 104.067 75.0447 103.907 74.7785C103.47 74.0512 102.794 73.6223 102.101 73.6699C101.142 73.7303 100.484 74.6578 100.257 75.5498C100.137 76.0207 100.104 76.4965 100.076 76.9599C99.1954 77.2678 98.3193 77.5916 97.4495 77.9321C97.4468 77.8591 97.4374 77.7878 97.4411 77.7135C97.458 77.3699 97.541 77.0263 97.6814 76.7187C97.7842 76.4953 97.6855 76.2306 97.4615 76.1285C97.2386 76.024 96.9734 76.1238 96.8712 76.3484C96.6838 76.7576 96.5729 77.2144 96.5508 77.6694C96.5404 77.8788 96.5504 78.0865 96.5778 78.2889C95.9792 78.5319 95.3796 78.7729 94.7882 79.031C94.5623 79.1297 94.459 79.392 94.5577 79.6178ZM101.12 75.7703C101.268 75.1917 101.671 74.5898 102.157 74.559C102.493 74.5474 102.882 74.8051 103.143 75.2381C103.264 75.4388 103.343 75.6629 103.4 75.8928C102.595 76.133 101.792 76.3881 100.992 76.6563C101.016 76.351 101.048 76.0528 101.12 75.7703ZM99.9956 77.9349C99.9952 77.9381 99.9953 77.9413 99.9948 77.9445C99.9438 78.3229 99.7592 79.2359 99.1602 79.5406C98.7934 79.7293 98.2815 79.6114 97.9449 79.262C97.8246 79.1369 97.7314 78.9786 97.6519 78.8084C98.4279 78.503 99.2103 78.2141 99.9956 77.9349Z" fill="#34343F"/>
</svg>
