<svg width="120" height="154" viewBox="0 0 120 154" fill="none" xmlns="http://www.w3.org/2000/svg">
<path d="M79.0368 152.145C83.1437 152.145 87.1831 152.087 91.22 152.162C95.1378 152.234 99.0554 152.29 102.973 152.347C106.118 152.394 109.26 152.574 112.403 152.695C112.465 152.698 112.528 152.696 112.588 152.71C112.731 152.745 112.949 152.736 112.936 152.933C112.925 153.099 112.721 153.072 112.589 153.08C111.049 153.17 109.511 153.285 107.97 153.337C105.982 153.405 103.991 153.409 102.001 153.463C97.6064 153.58 93.2103 153.618 88.8143 153.682C84.1708 153.75 79.5271 153.789 74.8839 153.853C70.9957 153.907 67.1056 153.816 63.2207 153.939C60.8737 154.014 58.5345 153.81 56.1922 153.917C53.7566 154.027 51.3208 153.923 48.8871 153.88C46.2644 153.834 43.6412 153.867 41.0197 153.798C36.9326 153.691 32.8445 153.67 28.7569 153.611C24.9322 153.557 21.1078 153.456 17.2847 153.332C15.7757 153.283 14.2623 153.262 12.7591 153.086C12.6082 153.069 12.3436 153.156 12.3456 152.933C12.3474 152.74 12.6211 152.771 12.7736 152.761C14.1885 152.669 15.6034 152.548 17.0201 152.52C20.6136 152.448 24.2057 152.328 27.7999 152.276C31.2083 152.226 34.6169 152.154 38.0254 152.09C39.3061 152.066 40.5832 152.132 41.8621 152.104C42.2296 152.096 42.3349 152.017 42.0597 151.708C42.0014 151.642 41.9623 151.547 41.9455 151.459C41.7622 150.505 42.5633 149.229 43.5094 148.961C44.177 148.772 44.8486 148.597 45.5118 148.394C46.1449 148.2 46.7865 148.017 47.2772 147.522C47.3694 147.429 47.5147 147.384 47.6413 147.331C48.0555 147.157 48.4308 146.992 48.5842 146.476C48.7008 146.083 49.0856 145.823 49.4166 145.57C49.6192 145.415 49.7656 145.231 49.866 144.996C50.4139 143.72 51.2645 142.719 52.5356 142.111C52.8762 141.948 52.9705 141.691 52.9523 141.323C52.9027 140.32 52.8521 140.234 51.8993 139.932C51.7522 139.886 51.6018 139.849 51.4575 139.795C50.8623 139.574 50.4756 139.26 50.3927 138.522C49.9896 134.937 49.5255 131.359 49.1289 127.773C48.7185 124.064 48.4218 120.345 48.036 116.634C47.6008 112.447 47.2608 108.252 47.0163 104.05C46.813 100.555 46.6048 97.0621 46.5329 93.5599C46.4746 90.7206 46.4616 87.8821 46.4929 85.044C46.5348 81.2348 46.6935 77.4279 46.8713 73.6227C46.9296 72.3754 47.051 71.1315 47.0498 69.8803C47.0494 69.5153 46.9307 69.278 46.6053 69.102C46.0906 68.8234 45.5961 68.5187 45.2145 68.0476C44.9249 67.6901 44.7908 67.3092 44.7966 66.8582C44.8155 65.3792 45.1683 63.9577 45.5307 62.5377C45.9541 60.8785 46.4171 59.2264 46.2925 57.4836C46.2564 56.9798 46.2289 56.9491 45.7459 57.1159C44.4051 57.579 43.0625 58.0375 41.7267 58.5149C41.4232 58.6235 41.223 58.5679 41.0693 58.2939C40.7676 57.756 40.4538 57.2248 40.162 56.6816C38.9506 54.4268 37.7337 52.1748 36.5418 49.9097C35.4581 47.85 34.2186 45.8732 33.265 43.7443C33.1423 43.4706 32.9309 43.2739 32.6802 43.1048C31.7444 42.4733 30.8967 41.7325 30.1525 40.8876C29.8542 40.5487 29.932 40.0617 29.9893 39.6478C30.0243 39.3948 29.9721 39.2727 29.7812 39.1607C29.7146 39.1217 29.6548 39.0665 29.5839 39.0404C28.3279 38.5787 27.6691 37.4978 26.921 36.5015C26.604 36.0793 26.2752 35.6951 25.7253 35.477C25.0714 35.2177 24.6773 34.5788 24.2751 34.0171C23.4081 32.8059 23.8305 30.6977 25.074 29.8944C25.4487 29.6523 25.8623 29.4698 26.1864 29.151C26.3805 28.96 26.6218 29.0788 26.8702 29.0753C26.7793 28.457 26.3777 28.1334 25.8649 27.9229C25.4483 27.7518 25.0492 27.5573 24.6905 27.2834C24.239 26.9386 24.0589 26.3914 24.2356 25.8944C24.3966 25.4415 24.7223 25.241 25.3461 25.2664C26.328 25.3065 27.2144 25.6699 28.0341 26.1778C29.0205 26.7889 29.9179 27.5097 30.6291 28.4471C31.0563 29.0103 31.3165 29.6495 31.5641 30.296C32.0061 31.4502 32.6382 32.516 33.1051 33.6579C33.2069 33.9069 33.3774 33.8882 33.5496 33.7704C33.8705 33.5511 34.1776 33.6215 34.5167 33.7343C36.5781 34.4199 38.4782 35.4577 40.3609 36.5051C41.4453 37.1085 42.5629 37.6792 43.5669 38.4246C43.8105 38.6054 44.006 38.6192 44.1999 38.3708C44.8217 37.574 45.6596 36.942 46.0382 35.9592C46.0542 35.9179 46.0848 35.8769 46.1193 35.8488C47.3675 34.8353 48.2223 33.5011 49.1019 32.1876C49.4623 31.6495 50.041 31.2598 50.2703 30.6484C50.4963 30.0458 51.0475 29.7911 51.4242 29.3558C51.5922 29.1617 51.8039 28.9972 51.822 28.7006C51.831 28.5533 51.9677 28.4573 52.1015 28.4179C52.5243 28.2934 52.826 28.0018 53.0884 27.6805C53.5389 27.1286 54.1831 26.7891 54.6281 26.232C54.7161 26.1218 54.8854 26.0622 55.0291 26.0149C55.1647 25.9702 55.2928 25.972 55.2783 25.7647C55.2689 25.6317 55.398 25.4932 55.5209 25.5646C55.9609 25.8207 56.22 25.4309 56.5454 25.3019C56.6882 25.2453 56.7562 25.0951 56.6753 24.9114C56.43 24.3548 56.3407 23.7585 56.264 23.1616C56.2122 22.7587 56.0177 22.4651 55.7107 22.191C54.2257 20.8659 53.0548 19.3617 52.9392 17.2533C52.9018 16.5724 52.5691 15.9517 52.3748 15.3032C51.509 12.4136 51.6755 9.53942 52.4839 6.68104C52.771 5.66596 53.3281 4.80529 54.2588 4.22231C54.7311 3.92647 55.2331 3.85444 55.7641 3.8915C56.1473 3.91822 56.4689 3.82584 56.8029 3.61183C59.257 2.03863 61.8647 1.89885 64.5513 2.89743C66.9424 3.78625 68.681 5.42577 69.8262 7.69512C70.2011 8.43812 70.7479 9.10479 70.9663 9.91245C71.3093 11.1805 71.9504 12.3018 72.5489 13.4487C72.7946 13.9195 73.1247 14.3192 73.4887 14.7006C74.7606 16.0334 76.3672 16.8617 78.0029 17.6137C78.992 18.0685 80.0685 18.3301 81.0954 18.7066C83.1046 19.4432 85.176 20.0458 87.0315 21.1378C88.2369 21.8472 89.4093 22.6379 90.1934 23.8558C90.7412 24.7067 91.2198 25.5835 91.1329 26.6477C91.1213 26.7909 91.2075 26.9972 91.0159 27.0529C90.8337 27.106 90.7671 26.9118 90.6904 26.7832C90.0197 25.6596 89.0515 24.8271 88.0214 24.0559C87.9534 24.005 87.8819 23.921 87.7726 23.9978C87.7631 24.1716 87.918 24.2156 88.0185 24.2956C88.9304 25.0213 89.7089 25.9097 90.3553 26.8385C91.0082 27.7769 91.541 28.8511 91.7741 30.0267C92.0888 31.6136 92.0748 33.1843 91.6553 34.7462C91.5601 35.1006 91.3998 35.4352 91.0767 35.7532C91.0943 35.4132 91.0997 35.1343 91.1245 34.8573C91.3458 32.3852 90.5167 30.2924 88.8713 28.4731C87.0938 26.5077 84.9092 25.1143 82.5915 23.8929C81.4326 23.2821 80.3039 22.6137 79.1406 22.0118C77.7986 21.3174 76.584 20.4414 75.4092 19.5044C74.1355 18.4885 73.1992 17.1907 72.3733 15.8047C72.3102 15.6988 72.2584 15.5861 72.1957 15.48C72.092 15.3046 71.9066 15.338 71.7838 15.3935C71.6135 15.4705 71.7598 15.6121 71.8038 15.7062C72.5551 17.3125 73.6493 18.6548 74.9933 19.7987C77.0423 21.5426 79.4275 22.7326 81.7875 23.9776C83.1182 24.6796 84.4459 25.406 85.6585 26.3222C86.509 26.9647 87.3367 27.6203 88.092 28.3776C89.9656 30.2563 90.883 32.5186 90.7143 35.1495C90.6219 36.592 90.2628 38.0125 89.6531 39.3457C89.5533 39.5638 89.5113 39.6599 89.8344 39.6604C92.7344 39.6644 95.6343 39.6949 98.5343 39.6997C104.013 39.7089 109.491 39.6805 114.969 39.7196C117.59 39.7383 119.796 41.8511 119.938 44.4494C120.029 46.1148 119.957 47.7798 119.971 49.4442C119.992 51.8508 119.985 54.2572 119.992 56.6637C120.004 60.5973 119.996 64.531 119.997 68.4648C119.998 76.9355 120.003 85.4063 119.996 93.8771C119.996 94.7065 119.972 95.5354 119.633 96.3291C118.886 98.0733 116.924 99.5173 114.973 99.5013C108.877 99.4512 102.782 99.4818 96.686 99.4817C92.9515 99.4816 89.217 99.4813 85.4825 99.4848C85.1134 99.4851 84.7433 99.5317 84.3755 99.5155C84.1247 99.5046 83.9209 99.357 83.9412 99.0719C83.9622 98.7737 84.1683 98.6652 84.4543 98.6605C89.1596 98.5815 93.8653 98.6403 98.5707 98.6287C103.555 98.6165 108.54 98.6162 113.524 98.6353C114.356 98.6385 115.194 98.7466 116.008 98.5314C118.008 98.0027 119.156 96.4922 119.158 94.3853C119.164 85.2805 119.163 76.1757 119.164 67.0709C119.165 60.6822 119.158 54.2934 119.178 47.9047C119.179 47.4116 119.028 47.3237 118.582 47.3253C113.644 47.3438 108.706 47.3492 103.768 47.347C94.91 47.343 86.0522 47.3314 77.1946 47.3231C77.0866 47.323 76.978 47.3333 76.8707 47.3253C76.529 47.3004 76.4275 47.4145 76.469 47.7843C76.692 49.7764 76.8444 51.7759 76.9311 53.7782C76.9736 54.7611 76.5904 55.6247 75.8858 56.3166C75.4787 56.7164 75.3183 57.1546 75.2764 57.7385C75.0835 60.43 75.1454 63.1345 74.839 65.8197C74.6811 67.2042 74.4367 68.564 73.9592 69.8777C73.7826 70.3638 73.502 70.7492 73.0404 70.9906C72.7259 71.155 72.6035 71.4022 72.5577 71.7628C72.3509 73.3893 72.6834 74.9569 73.0069 76.5301C73.7214 80.0041 73.7837 83.5061 73.4789 87.0292C73.313 88.9486 73.1539 90.8729 73.1143 92.7975C73.0871 94.1179 73.2689 95.4429 73.361 96.7656C73.4737 98.3804 73.6159 99.9935 73.7 101.61C73.8758 104.989 74.3805 108.324 74.9471 111.655C75.4746 114.756 75.9162 117.871 76.4306 120.973C76.9955 124.382 77.3228 127.824 77.9151 131.227C78.2915 133.388 78.3933 135.577 78.6982 137.744C78.7947 138.43 78.6808 138.591 77.9885 138.732C77.5571 138.819 77.4059 138.984 77.4696 139.45C77.5634 140.135 77.5755 140.833 77.5912 141.527C77.5968 141.776 77.6379 141.834 77.8699 141.723C78.0064 141.657 78.1586 141.611 78.3085 141.588C78.5319 141.554 78.6424 141.651 78.6574 141.896C78.8522 145.08 79.0526 148.264 79.26 151.448C79.2754 151.677 79.1559 151.851 79.0368 152.145ZM51.7631 146.959C51.2574 147.096 50.7887 146.945 50.3197 146.779C49.9725 146.657 49.6388 146.632 49.3608 146.961C49.7322 147.245 50.1642 147.256 50.5526 147.39C50.7925 147.474 51.1835 147.443 51.1399 147.826C51.0917 148.248 50.7132 148.195 50.4055 148.179C49.9404 148.156 49.4879 148.062 49.0634 147.867C48.7732 147.733 48.5259 147.751 48.2458 147.933C46.9545 148.775 45.5581 149.373 44.0435 149.686C43.803 149.735 43.5651 149.811 43.336 149.901C43.0738 150.003 42.9568 150.256 42.9713 150.496C42.987 150.757 43.2718 150.657 43.4256 150.668C45.2863 150.801 47.154 150.851 49.0146 150.781C52.0014 150.669 54.9784 150.348 57.9686 150.272C58.6697 150.255 58.7155 150.227 58.6791 149.528C58.5679 147.389 58.4333 145.25 58.3222 143.111C58.3049 142.778 58.1868 142.789 57.9182 142.861C57.2809 143.033 56.6837 143.364 56.002 143.361C55.8352 143.36 55.6375 143.386 55.6153 143.142C55.5956 142.922 55.6675 142.744 55.9078 142.683C55.9974 142.661 56.0886 142.644 56.1784 142.622C56.9982 142.425 57.0697 142.339 57.1023 141.503C57.1084 141.349 57.093 141.193 57.1104 141.04C57.1513 140.682 57.0126 140.608 56.6591 140.637C55.9844 140.692 55.3039 140.708 54.6272 140.608C54.4454 140.581 54.2576 140.585 54.0729 140.59C53.9233 140.594 53.827 140.639 53.9427 140.816C54.4041 141.522 54.4076 142.324 54.4141 143.123C54.4242 144.363 54.0394 145.479 53.3925 146.529C53.1876 146.862 52.9478 147.11 52.6088 147.279C52.0874 147.54 51.9623 147.492 51.7608 146.957C52.7719 146.305 53.2295 145.313 53.4684 144.184C53.5183 143.948 53.4001 143.794 53.2346 143.672C52.8691 143.403 52.4467 143.326 52.0066 143.383C51.729 143.419 51.2774 143.91 51.3304 144.124C51.4069 144.431 51.7197 144.416 51.9536 144.492C52.2308 144.582 52.5217 144.633 52.7935 144.737C53.0516 144.835 53.0441 145.041 52.8798 145.216C52.7322 145.373 52.6023 145.787 52.3648 145.567C52.0048 145.235 51.5637 145.205 51.1642 145.033C51.054 144.986 50.9171 144.928 50.8172 145.037C50.602 145.274 50.3388 145.537 50.347 145.837C50.3503 145.959 50.7764 146.116 51.0641 146.108C51.1254 146.106 51.1872 146.114 51.2483 146.122C51.9819 146.213 52.0286 146.29 51.7631 146.959ZM47.9738 47.5569C48.1692 46.9641 48.1802 46.3789 48.2259 45.7991C48.3661 44.0164 48.4748 42.2294 49.1049 40.5271C49.32 39.9457 49.5783 39.3884 49.9086 38.8648C50.0202 38.6878 50.1814 38.6209 50.3868 38.7038C50.6134 38.7954 50.6141 38.9727 50.5548 39.1655C50.5095 39.3127 50.4521 39.4562 50.4001 39.6014C50.1142 40.3991 49.7585 41.1699 49.5496 41.9975C49.0509 43.9738 49.0755 46.0027 48.9198 48.0131C48.8821 48.4997 49.1362 48.8817 49.5301 49.1415C49.996 49.4487 50.4096 49.814 50.816 50.1908C51.0217 50.3815 51.2587 50.5206 51.5012 50.6588C51.7876 50.8222 52.0244 50.8298 52.3056 50.621C52.656 50.3609 53.0767 50.2351 53.5129 50.1899C55.0055 50.0354 56.5025 50.0558 57.9971 50.1284C58.4286 50.1493 58.8571 50.053 59.2877 50.1436C60.2889 50.3544 61.3077 50.352 62.3241 50.368C62.39 50.369 62.514 50.4457 62.5165 50.2663C62.5203 49.9949 62.5735 49.723 62.5648 49.4526C62.5098 47.7423 62.4246 46.0326 62.3893 44.3219C62.373 43.5363 62.2482 42.7524 62.334 41.9659C62.3643 41.6876 62.4854 41.4129 62.8118 41.4593C63.0704 41.4962 63.2847 41.6682 63.2696 42.0037C63.1511 44.6276 63.3712 47.2437 63.4417 49.8635C63.451 50.213 63.583 50.3507 63.8561 50.4495C64.6603 50.7407 65.3154 51.2315 65.8461 51.9015C66.0098 52.1084 66.1829 52.2758 65.902 52.5187C65.6239 52.7591 65.4277 52.6364 65.2448 52.4005C64.8759 51.9249 64.3784 51.618 63.8557 51.3457C63.7655 51.2988 63.6599 51.1982 63.564 51.2938C63.4754 51.382 63.5645 51.4937 63.5896 51.5958C63.6948 52.0231 63.9043 52.3965 64.1718 52.74C64.3559 52.9763 64.3505 53.1831 64.1092 53.3803C63.8391 53.601 63.6782 53.3964 63.5304 53.2261C63.0935 52.7227 62.8893 52.1054 62.7561 51.4704C62.7065 51.2341 62.6296 51.1716 62.3995 51.1691C61.7676 51.1621 61.1334 51.1537 60.5047 51.0966C58.2282 50.89 55.9511 50.7943 53.6668 50.9505C53.0369 50.9936 52.6645 51.2915 52.4416 51.889C51.8016 53.6041 51.692 55.3762 51.8017 57.1761C51.902 58.8199 52.6621 59.9784 54.2379 60.6098C55.2609 61.0196 56.3399 61.2088 57.3787 61.5549C59.649 62.3114 62.0102 62.5641 64.3956 62.605C65.0723 62.6166 65.7496 62.6115 66.4252 62.6446C66.6042 62.6534 66.9154 62.6761 66.904 62.898C66.8907 63.1604 66.7354 63.4346 66.3908 63.4637C66.1299 63.4857 65.8681 63.5272 65.6078 63.5197C63.3388 63.4549 61.0846 63.2739 58.8567 62.7961C56.982 62.394 55.1298 61.9576 53.3976 61.0902C52.3745 60.578 51.6263 59.8757 51.3156 58.754C51.2829 58.6355 51.2411 58.5173 51.1863 58.4075C51.0826 58.1994 51.0133 57.8764 50.848 57.8127C49.7871 57.4037 48.7313 56.9693 47.6129 56.7285C47.2452 56.6493 47.0996 56.7715 47.1248 57.1445C47.2055 58.3363 47.1444 59.5103 46.8438 60.6785C46.3526 62.5877 45.8194 64.4875 45.7026 66.4774C45.6568 67.2565 45.8819 67.8236 46.5517 68.1672C47.81 68.8125 48.9914 69.6324 50.3946 69.9629C51.4513 70.2117 52.3642 70.8429 53.4093 71.1001C56.9121 71.9623 60.4501 72.5507 64.079 72.3033C64.9392 72.2446 65.7958 72.159 66.6471 71.9991C67.3584 71.8654 68.0503 71.6579 68.7692 71.5427C69.9814 71.3483 71.2082 71.1538 72.3124 70.5435C72.6469 70.3588 72.9882 70.1566 73.0938 69.7931C73.2861 69.1307 73.6131 68.5139 73.7043 67.8158C73.8559 66.6541 74.0292 65.4965 74.1165 64.3262C74.2778 62.163 74.2285 59.99 74.4949 57.7764C73.9138 58.0835 73.5876 58.5707 73.1492 58.9217C71.7434 60.0477 70.4354 61.2983 68.89 62.2492C68.6186 62.4161 68.4175 62.4967 68.2335 62.2146C68.0528 61.9375 68.2451 61.741 68.4673 61.6085C69.6513 60.9034 70.6253 59.9289 71.6974 59.082C72.7344 58.2629 73.673 57.3202 74.6943 56.4796C75.4351 55.8699 75.9298 55.147 76.0244 54.1904C76.1175 53.2504 75.9775 52.3144 75.9135 51.3776C75.7516 49.009 75.5458 46.644 75.2961 44.2832C75.0326 41.7921 74.4801 39.3547 73.8244 36.9436C73.2527 34.8414 72.4161 32.8547 71.279 30.9736C70.2679 29.3011 68.9513 27.9937 67.323 26.9722C66.3272 26.3475 66.2591 26.4231 65.4053 27.2512C64.2836 28.339 63.3611 29.5982 62.2854 30.7225C61.6419 31.3951 60.9201 31.9757 60.1129 32.4367C59.2696 32.9183 58.311 32.7539 57.8311 32.0511C57.4875 31.5477 57.2772 30.9912 57.2914 30.3599C57.3095 29.5524 57.5686 28.8077 57.9057 28.0986C58.3154 27.2367 58.7987 26.4098 59.244 25.5646C59.305 25.4487 59.4189 25.311 59.3094 25.1828C59.2175 25.0753 59.0739 25.1511 58.9602 25.1828C58.0858 25.426 57.2625 25.7508 56.4556 26.2051C54.0607 27.5533 52.2272 29.4804 50.5572 31.6007C49.5569 32.8707 48.7543 34.2837 47.6529 35.4853C46.5708 36.666 45.657 37.9941 44.5454 39.1542C44.2581 39.454 43.9804 39.5462 43.6084 39.3225C42.7762 38.8221 41.8952 38.4087 41.085 37.8655C40.5802 37.5271 40.0728 37.1742 39.4169 37.1273C39.191 37.1111 38.845 37.1029 38.7728 36.7833C38.722 36.5586 38.5715 36.4924 38.4127 36.4033C37.1735 35.7079 35.8529 35.1884 34.5676 34.5929C34.0271 34.3425 33.7787 34.5127 33.476 34.8577C32.239 36.268 31.2911 37.8311 30.8464 39.6785C30.7486 40.0845 30.8145 40.4113 31.0604 40.7117C31.2449 40.9372 31.4533 41.1459 31.6699 41.3413C31.8782 41.5292 32.0932 41.8551 32.3721 41.3972C32.4083 41.3378 32.5385 41.3286 32.628 41.3096C34.7533 40.8583 36.9036 40.5573 39.0504 40.2329C39.4494 40.1726 39.7751 40.269 39.9802 40.594C40.4587 41.3528 41.1677 41.9215 41.6525 42.6734C41.7935 42.892 41.9726 43.0872 42.1434 43.2853C43.3502 44.6849 44.5664 46.0766 45.7606 47.4868C45.9657 47.729 46.0344 47.7283 46.2055 47.4668C46.5993 46.8651 47.0598 46.7725 47.5549 47.1615C47.6869 47.2654 47.8005 47.392 47.9738 47.5569ZM54.7825 76.5548C54.6722 77.2338 54.8111 77.8255 54.8464 78.4223C54.9256 79.7607 55.0018 81.1023 55.1662 82.4318C55.4157 84.4501 55.6961 86.4647 55.9991 88.4769C56.5526 92.1534 57.242 95.8034 58.0058 99.4381C58.6367 102.44 59.3947 105.416 60.0937 108.404C60.2218 108.952 60.4354 109.477 60.5892 110.007C60.7668 110.618 60.6809 111.32 60.6395 111.978C60.4688 114.687 60.3297 117.397 60.2917 120.112C60.2872 120.433 60.3798 120.771 60.3099 121.075C60.1663 121.698 60.134 122.324 60.1159 122.955C60.0737 124.42 60.0433 125.885 59.9891 127.349C59.8477 131.171 59.6914 134.992 59.5518 138.813C59.5201 139.68 59.4259 139.841 58.6062 140.12C58.4897 140.16 58.3698 140.191 58.2496 140.218C58.0729 140.258 57.9915 140.367 57.9816 140.544C57.9635 140.867 57.9266 141.19 57.9243 141.513C57.922 141.855 57.9866 142.07 58.4385 141.887C58.9388 141.685 59.0544 141.775 59.0824 142.239C59.1868 143.963 59.2853 145.686 59.3804 147.41C59.4568 148.796 59.5248 150.181 59.5974 151.567C59.6058 151.729 59.5592 151.929 59.8292 151.926C60.461 151.916 61.0937 151.972 61.7246 151.898C61.8006 151.889 61.8931 151.9 61.9245 151.817C61.9668 151.705 61.8656 151.655 61.7955 151.6C61.5995 151.449 61.5582 151.258 61.6189 151.024C61.704 150.695 61.7827 150.365 61.8501 150.033C61.9805 149.391 62.3856 149.009 62.988 148.814C63.2368 148.734 63.4892 148.658 63.7454 148.608C65.0203 148.363 66.1917 147.87 67.2594 147.136C67.5262 146.953 67.8852 146.844 67.9203 146.42C67.9272 146.336 68.0913 146.206 68.1916 146.197C68.7081 146.152 68.8998 145.729 69.1274 145.385C69.3895 144.988 69.5687 144.538 69.7957 144.117C70.1205 143.516 70.4957 142.942 71.083 142.569C72.4179 141.72 72.4816 141.534 71.921 140.038C71.8081 139.737 71.6458 139.643 71.3397 139.653C70.8315 139.67 70.3215 139.659 69.8133 139.636C69.4395 139.618 69.1963 139.433 69.0829 139.046C68.5753 137.316 68.0555 135.59 67.5297 133.865C66.7924 131.447 66.0045 129.043 65.3172 126.611C64.81 124.816 64.2621 123.033 63.7685 121.234C63.3486 119.704 62.9462 118.169 62.5151 116.642C61.7156 113.809 61.1499 110.913 60.4711 108.048C58.8703 101.291 57.375 94.5165 56.3347 87.648C55.8497 84.4454 55.4459 81.2308 55.2904 77.9947C55.2408 76.9625 54.969 76.3049 53.9315 75.8804C52.7943 75.415 51.9778 74.4977 51.5542 73.3024C51.3782 72.8058 51.3348 72.2787 51.2776 71.7573C51.2596 71.5932 51.2264 71.438 51.0199 71.442C50.7828 71.4467 50.758 71.6249 50.7693 71.8036C50.8809 73.5762 51.6013 75.0122 53.1542 75.9409C53.4914 76.1426 53.8722 76.2893 54.1783 76.5389C54.3711 76.6959 54.5318 76.7327 54.7825 76.5548ZM80.3276 46.4825C80.4919 46.6211 80.6833 46.5587 80.8575 46.5616C83.5223 46.6044 86.1846 46.452 88.85 46.4759C92.8596 46.5118 96.8698 46.4948 100.88 46.4991C102.992 46.5014 105.105 46.5018 107.217 46.5021C109.405 46.5023 111.593 46.501 113.781 46.5005C115.385 46.5002 116.99 46.4542 118.592 46.5652C119.008 46.5941 119.187 46.4312 119.165 46.0051C119.141 45.5434 119.201 45.0737 119.142 44.6183C119.005 43.5691 118.76 42.5256 117.938 41.7914C116.971 40.9285 115.853 40.4507 114.491 40.4616C109.4 40.5024 104.309 40.4799 99.2175 40.4742C95.9951 40.4705 92.7725 40.4573 89.5501 40.4393C89.2645 40.4377 89.0874 40.5534 88.9469 40.7814C88.1752 42.0357 87.264 43.1448 86.0399 44.0142C84.4261 45.1605 82.6831 45.9512 80.7427 46.3181C80.5993 46.3452 80.4319 46.3181 80.3276 46.4825ZM53.7775 16.7173C53.8068 17.0854 53.8108 17.4577 53.8696 17.821C54.1429 19.5069 55.1856 20.6914 56.4143 21.7763C56.9397 22.2402 57.4881 22.3463 58.0711 22.0734C59.0305 21.6242 59.9388 21.0752 60.7465 20.3773C61.6757 19.5744 62.3899 18.542 63.441 17.8679C64.7207 17.0474 65.194 15.8654 64.9919 14.3782C64.9014 13.7124 64.4865 13.3903 64.0013 13.6966C63.5063 14.0091 63.0719 13.9185 62.6123 13.6694C61.8943 13.2804 61.1829 12.8776 60.4525 12.5128C58.595 11.5851 56.9993 10.3689 55.9667 8.51983C55.8168 8.25149 55.6996 8.40601 55.5887 8.52852C55.0749 9.09654 54.7648 9.7873 54.4426 10.4693C54.3566 10.6513 54.4235 10.8 54.5828 10.9093C54.8406 11.0861 54.8623 11.3315 54.795 11.6072C54.7365 11.8466 54.6932 12.0903 54.6248 12.3268C54.2088 13.7634 53.7718 15.1956 53.7775 16.7173ZM71.3702 146.638C70.9036 146.929 70.4889 146.796 70.0851 146.631C69.8009 146.515 69.5182 146.495 69.2297 146.573C69.1331 146.598 69.003 146.651 69.0193 146.781C69.0317 146.881 69.153 146.899 69.2389 146.92C69.6428 147.018 70.0495 147.105 70.4524 147.207C70.6025 147.245 70.7575 147.305 70.7649 147.498C70.7718 147.674 70.649 147.771 70.5203 147.864C70.2872 148.033 70.0391 147.967 69.8099 147.888C68.8263 147.545 67.8797 147.447 67.0358 148.226C67.014 148.246 66.981 148.254 66.9539 148.269C65.9034 148.835 64.8046 149.269 63.6327 149.516C63.2537 149.595 62.8893 149.723 62.7017 150.124C62.5941 150.354 62.6156 150.441 62.8963 150.462C65.1305 150.623 67.3692 150.605 69.6003 150.499C72.277 150.372 74.9479 150.118 77.6266 150.004C78.298 149.976 78.3411 149.966 78.3065 149.279C78.2053 147.264 78.1215 145.246 77.9379 143.235C77.8761 142.558 77.8806 142.552 77.2226 142.748C76.9427 142.831 76.6632 142.925 76.3988 143.048C76.1485 143.163 75.8958 143.19 75.6326 143.159C75.4124 143.133 75.1922 143.087 75.1731 142.801C75.1539 142.515 75.3481 142.437 75.579 142.396C75.7005 142.375 75.8204 142.346 75.9413 142.322C76.5874 142.19 76.7245 142.055 76.7272 141.397C76.7297 140.766 76.6709 140.135 76.6594 139.504C76.6534 139.172 76.4409 139.205 76.2481 139.254C75.2995 139.494 74.3307 139.537 73.3605 139.584C72.6113 139.62 72.6092 139.635 72.8544 140.323C72.9317 140.54 72.9889 140.765 73.0772 140.978C73.1343 141.115 73.2139 141.304 73.4033 141.236C73.7828 141.1 73.8064 141.382 73.8924 141.606C74.1486 142.274 73.9249 142.945 73.9119 143.616C73.8879 144.857 73.2926 145.853 72.5899 146.807C72.4382 147.012 72.2177 147.13 71.977 147.201C71.5202 147.336 71.3187 147.166 71.3702 146.638ZM42.109 50.2258C42.1357 50.3786 42.1485 50.4864 42.1738 50.5911C42.4178 51.6009 42.9261 52.4398 43.7777 53.054C44.1079 53.2922 44.3139 53.6122 44.3543 54.0144C44.4107 54.5761 44.7439 54.8982 45.2312 55.1008C45.7007 55.296 46.2557 55.3882 46.6225 55.7018C47.0814 56.094 47.5905 55.7561 48.0236 55.9848C48.1029 56.0267 48.2033 56.0266 48.2903 56.0564C48.9899 56.2968 49.6894 56.5375 50.3873 56.7826C50.9007 56.9628 50.9374 56.9455 50.9171 56.3876C50.8729 55.1772 50.9789 53.9888 51.3233 52.8203C51.6539 51.6986 51.6263 51.7089 50.6645 51.0422C49.8179 50.4555 48.9747 49.8704 48.3009 49.0587C47.9823 48.6748 47.6379 48.2919 47.2613 47.9518C47.1648 47.8647 47.043 47.7184 46.9052 47.8347C46.7702 47.9486 46.7965 48.1133 46.9208 48.2444C47.088 48.4207 47.2043 48.6423 47.4542 48.742C47.9467 48.9386 48.0849 49.4183 48.2362 49.8504C48.356 50.1925 47.9697 50.5718 47.4692 50.6795C46.7598 50.8321 46.055 50.6986 45.3522 50.6297C44.3986 50.5362 43.4764 50.2675 42.5399 50.0784C42.3626 50.0425 42.1287 49.9279 42.109 50.2258ZM65.5277 26.1188C64.9168 25.9906 64.7762 25.5332 64.5564 25.1583C63.6759 23.6566 63.0343 22.0342 62.2207 20.4982C62.1039 20.2778 62.0307 20.2718 61.8537 20.4235C61.3981 20.8139 60.9208 21.1793 60.4705 21.5755C60.3435 21.6871 59.8326 21.8406 60.4335 22.0432C60.4556 22.0507 60.4643 22.1592 60.4476 22.2104C60.3715 22.4433 60.4555 22.6682 60.4645 22.8967C60.5016 23.8327 60.6069 24.7736 60.1102 25.6479C59.692 26.3839 59.2797 27.1256 58.9167 27.8895C58.4831 28.8022 58.0166 29.7071 58.1166 30.7844C58.1766 31.4291 58.9769 32.0706 59.6528 31.7789C59.9058 31.6697 60.1729 31.5593 60.381 31.3864C61.0546 30.8272 61.7278 30.2586 62.2956 29.5914C63.3016 28.4095 64.2662 27.192 65.5277 26.1188ZM69.2481 76.7365C69.2582 75.4247 69.2107 74.1151 69.0743 72.8101C69.0588 72.6619 69.171 72.3771 68.8436 72.425C68.5982 72.461 68.5635 72.6349 68.591 72.8771C68.6553 73.4432 68.6836 74.0138 68.7136 74.5833C68.9135 78.3758 68.463 82.1306 68.0345 85.8847C67.7614 88.277 67.6076 90.6764 67.5322 93.0804C67.4225 96.5848 67.5993 100.083 67.9098 103.572C68.0859 105.552 68.2637 107.533 68.5498 109.502C68.8337 111.455 69.1292 113.406 69.4681 115.351C70.1381 119.194 70.855 123.028 71.7147 126.834C72.3125 129.481 72.817 132.146 73.2875 134.818C73.504 136.048 73.6954 137.281 73.8372 138.522C73.8525 138.655 73.8423 138.836 74.0477 138.805C74.2155 138.78 74.3164 138.662 74.2835 138.47C74.2704 138.394 74.2668 138.316 74.2556 138.24C74.0856 137.081 73.9219 135.92 73.7433 134.762C73.2259 131.406 72.4889 128.094 71.7764 124.777C70.4571 118.637 69.375 112.459 68.6601 106.216C68.2332 102.488 68.0059 98.7496 67.9831 95.0006C67.9738 93.4606 68.0403 91.918 68.124 90.377C68.2478 88.0963 68.5129 85.8305 68.7399 83.5603C68.967 81.29 69.2795 79.0261 69.2481 76.7365ZM27.663 30.5578C27.8763 30.8528 28.1409 31.0299 28.4033 31.1682C29.674 31.8383 29.7437 33.9157 28.5109 34.7704C28.2215 34.9711 27.981 35.241 27.7035 35.461C27.5486 35.5839 27.5701 35.6834 27.6295 35.8543C28.0468 37.0549 29.0043 37.7478 29.9903 38.4208C30.1908 38.5576 30.3212 38.5382 30.4268 38.3159C30.6121 37.9259 30.8316 37.55 30.9876 37.1489C31.2362 36.5095 31.5363 35.913 32.053 35.4437C32.616 34.9323 32.6675 34.3535 32.2645 33.7192C32.207 33.6287 32.1741 33.523 32.1222 33.4287C31.6157 32.5085 31.1941 31.5491 30.8148 30.5711C29.8656 28.1236 28.0176 26.7379 25.5412 26.0901C25.3456 26.039 25.1579 26.0514 25.0698 26.2615C24.9891 26.4538 25.0613 26.6459 25.2219 26.7529C25.4246 26.888 25.649 27.0174 25.8824 27.0749C26.797 27.3003 27.3059 27.9457 27.6722 28.7448C27.8323 29.0942 27.973 29.4532 28.1068 29.8138C28.3283 30.4108 28.3229 30.4129 27.663 30.5578ZM24.7542 31.9757C24.8482 32.4264 24.7719 33.0068 24.9781 33.5532C25.2549 34.2869 26.1855 34.9633 26.8314 34.8194C27.5129 34.6677 28.1321 34.3344 28.3649 33.6297C28.6706 32.7042 28.4611 32.1658 27.6927 31.591C27.5208 31.4624 27.3346 31.3517 27.1494 31.2421C26.7791 31.0232 26.3891 30.8318 26.1231 30.4743C26.0094 30.3214 25.8764 30.3311 25.7155 30.3996C25.2029 30.6179 24.7574 31.2902 24.7542 31.9757ZM62.5808 151.272C62.8074 151.528 62.9809 151.734 63.2924 151.752C63.7694 151.778 64.2457 151.842 64.7223 151.843C67.6524 151.853 70.5825 151.849 73.5127 151.851C73.7364 151.852 73.9214 151.818 74.0859 151.629C74.3139 151.367 74.5527 151.463 74.7477 151.699C74.8297 151.799 74.831 151.966 75.0295 151.951C76.0281 151.876 77.0281 151.82 78.0257 151.734C78.4419 151.698 78.3997 151.355 78.398 151.061C78.3961 150.713 78.1384 150.776 77.9324 150.789C77.0095 150.845 76.0855 150.891 75.165 150.975C71.3829 151.321 67.5935 151.384 63.7992 151.31C63.4181 151.303 63.0434 151.147 62.5808 151.272ZM42.8685 151.431C43.4606 152.022 44.1051 151.919 44.6759 151.925C47.6826 151.957 50.6896 151.94 53.6966 151.939C53.974 151.939 54.2279 151.933 54.4625 151.712C54.6624 151.523 54.9274 151.582 54.9932 151.877C55.0381 152.079 55.1123 152.066 55.2686 152.058C56.2534 152.014 57.2362 151.908 58.2242 151.952C58.3006 151.956 58.3804 151.953 58.4543 151.936C58.8744 151.834 58.6164 151.503 58.6591 151.28C58.7042 151.045 58.5149 151.066 58.3524 151.073C57.6134 151.107 56.8736 151.127 56.1349 151.167C53.6273 151.303 51.1212 151.47 48.6124 151.574C47.3821 151.625 46.1468 151.635 44.9144 151.531C44.2774 151.477 43.6367 151.467 42.8685 151.431ZM72.6305 145.141C72.5671 144.989 72.3757 144.987 72.2499 145.091C72.027 145.276 71.8999 145.205 71.6794 145.064C70.7645 144.479 70.3964 144.579 70.0731 145.377C69.944 145.696 70.0735 145.728 70.3225 145.789C70.7756 145.901 71.2846 145.897 71.6048 146.334C71.6289 146.367 71.7166 146.372 71.7694 146.362C72.0394 146.311 72.6522 145.495 72.6305 145.141ZM73.0199 143.905C72.9919 143.722 73.1099 143.495 72.8563 143.379C72.4861 143.21 72.102 143.098 71.697 143.193C71.3243 143.281 71.066 143.592 70.9907 143.904C70.9483 144.08 71.3808 144.106 71.6022 144.185C71.7719 144.246 71.9613 144.255 72.143 144.277C72.3124 144.298 72.4823 144.313 72.5938 144.466C72.8213 144.778 72.9216 144.624 72.9988 144.36C73.0428 144.209 73.0465 144.058 73.0199 143.905ZM53.9906 11.5128C53.623 11.7341 53.6806 12.3285 53.1415 12.238C53.127 12.2356 53.0814 12.3362 53.073 12.3922C52.9881 12.9645 53.0878 13.5294 53.1684 14.102C53.4361 13.2591 53.7038 12.4163 53.9906 11.5128Z" fill="#34343F"/>
<path d="M0.00253259 31.3464C0.00253259 23.4457 0.00649059 15.5452 2.02059e-06 7.64453C-0.00175759 5.41367 1.14584 3.92899 3.04512 2.9644C3.67088 2.64657 4.37792 2.50316 5.10398 2.50327C17.8653 2.50602 30.6266 2.5025 43.388 2.50206C43.6496 2.50206 43.9133 2.50503 44.1724 2.53681C44.3907 2.56353 44.6229 2.63249 44.5978 2.92272C44.5749 3.18754 44.3787 3.27046 44.1365 3.27563C43.2114 3.29542 42.2849 3.35657 41.3615 3.32644C40.5123 3.29872 39.6666 3.34623 38.8193 3.34458C33.5728 3.33402 28.3262 3.34909 23.0797 3.33865C17.2177 3.32699 11.3557 3.2974 5.49362 3.27541C4.04964 3.27002 2.79174 3.71663 1.82219 4.82365C1.18972 5.54575 0.871561 6.404 0.850995 7.362C0.835049 8.10235 0.855944 8.84337 0.846706 9.58395C0.842967 9.88088 0.955143 9.99658 1.25824 9.9836C5.06736 9.82062 8.87834 9.92949 12.6885 9.9219C24.4775 9.89837 36.2667 9.90332 48.0559 9.89727C48.1485 9.89727 48.2416 9.89133 48.3335 9.89958C48.5698 9.92091 48.8654 9.86241 48.8555 10.2495C48.8466 10.5983 48.6387 10.7678 48.3171 10.7328C47.6986 10.6651 47.0851 10.7461 46.4696 10.7464C37.7666 10.7513 29.0635 10.7538 20.3605 10.7539C14.4505 10.754 8.54039 10.7474 2.6304 10.7517C2.19908 10.752 1.77413 10.6696 1.33764 10.7154C0.947223 10.7563 0.825149 10.9139 0.827898 11.305C0.849343 14.3293 0.856054 17.3536 0.856164 20.3781C0.856934 31.9822 0.856493 43.5862 0.847035 55.1903C0.846155 56.317 1.02014 57.3843 1.78007 58.2557C2.52857 59.114 3.41706 59.7048 4.63438 59.7406C8.95434 59.8677 13.2743 59.7718 17.5941 59.7928C20.9565 59.8092 24.3192 59.804 27.6817 59.7983C28.653 59.7967 29.6242 59.7601 30.5955 59.7403C30.828 59.7356 31.0593 59.7472 31.2796 59.8308C31.4634 59.9005 31.6202 60.0122 31.6135 60.2267C31.6061 60.4623 31.4329 60.5764 31.2233 60.6216C31.0892 60.6505 30.948 60.6559 30.8098 60.6559C22.3074 60.659 13.8049 60.6509 5.30248 60.6669C2.18643 60.6728 -0.00527676 58.2847 0.00143176 55.2799C0.0192478 47.3021 0.00747962 39.3243 0.00747962 31.3465C0.00604994 31.3464 0.0042922 31.3464 0.00253259 31.3464Z" fill="#34343F"/>
<path d="M8.23055 98.8021C8.23055 93.4641 8.22879 88.1261 8.23143 82.788C8.23242 80.7948 9.66903 79.3438 11.6696 79.3424C19.5687 79.3366 27.4678 79.3368 35.3671 79.346C36.9779 79.3479 38.1314 80.1004 38.7716 81.5895C38.995 82.1089 38.9863 82.6753 38.9867 83.2279C38.9929 91.3738 38.9919 99.5197 38.9942 107.666C38.9948 110.088 39.0033 112.51 39.0031 114.932C39.003 116.332 38.377 116.961 36.9649 116.962C28.0322 116.967 19.0995 116.954 10.1668 116.982C8.99631 116.986 8.20283 116.092 8.20976 114.862C8.24023 109.509 8.22285 104.156 8.22285 98.8021C8.22538 98.8021 8.22802 98.8021 8.23055 98.8021ZM38.2157 100.119C38.2148 100.119 38.2139 100.119 38.2131 100.119C38.2131 95.3045 38.2132 90.4901 38.213 85.6757C38.213 84.7978 38.2123 84.7979 37.3211 84.8215C37.2286 84.8239 37.1359 84.825 37.0434 84.8244C32.0601 84.7964 27.0766 84.8921 22.0931 84.7721C20.243 84.7275 18.3917 84.7693 16.5403 84.8099C14.2885 84.8593 12.0348 84.8237 9.78187 84.8263C9.0171 84.8272 9.01182 84.8294 9.0116 85.5746C9.01039 89.3075 9.0127 93.0403 9.01292 96.7732C9.01314 102.004 9.00434 107.235 9.01974 112.466C9.0226 113.45 8.93825 114.434 9.08077 115.421C9.13675 115.809 9.28577 115.915 9.61812 115.95C10.4307 116.035 11.2444 116.106 12.0616 116.101C16.8596 116.069 21.6577 116.134 26.4562 116.055C27.9175 116.031 29.3856 116.105 30.8505 116.103C32.8992 116.099 34.95 115.994 36.9958 116.061C38.095 116.096 38.1909 115.777 38.2156 114.839C38.2163 114.809 38.2157 114.778 38.2157 114.747C38.2157 109.871 38.2157 104.995 38.2157 100.119ZM23.6543 83.9805C23.6543 83.9821 23.6543 83.9839 23.6543 83.9855C28.2201 83.9855 32.7857 83.986 37.3515 83.9852C38.1745 83.9851 38.1891 83.983 38.2004 83.1711C38.2123 82.3159 38.0562 81.5119 37.3807 80.8967C36.7775 80.3472 36.06 80.1369 35.2593 80.1373C30.9712 80.1386 26.6831 80.1139 22.3952 80.1486C21.2244 80.1581 20.0516 80.2335 18.882 80.173C17.2176 80.0869 15.5549 80.2221 13.8903 80.164C13.2006 80.1399 12.5062 80.204 11.8122 80.1552C10.9307 80.0932 10.1751 80.3588 9.59084 81.0547C9.11322 81.6236 9.00115 82.3001 9.0094 83.0036C9.02248 84.1165 8.87303 83.9765 9.95739 83.978C14.5229 83.984 19.0886 83.9805 23.6543 83.9805Z" fill="#34343F"/>
<path d="M112.889 63.1146C112.862 66.8604 111.188 69.409 108.334 71.2136C106.927 72.1031 105.287 72.4648 103.641 72.4408C102.402 72.4228 101.171 72.1116 100.037 71.5221C99.0481 71.0085 98.9698 71.0696 98.1868 71.8868C97.2596 72.8543 96.3044 73.7966 95.3349 74.7219C94.545 75.4757 93.7147 75.5067 92.8356 74.841C92.6187 74.6769 92.4986 74.7119 92.3311 74.8791C91.1416 76.0662 89.9481 77.2492 88.7531 78.4307C88.6226 78.5597 88.4915 78.709 88.3303 78.7801C88.1474 78.8608 87.9102 78.9717 87.7506 78.7224C87.6024 78.4908 87.6663 78.2828 87.8635 78.1042C88.149 77.8456 88.429 77.5809 88.7164 77.3245C89.58 76.5545 90.3275 75.6653 91.2099 74.9129C91.4633 74.6968 91.6585 74.405 91.8513 74.1277C92.0004 73.9133 91.755 73.8033 91.6595 73.6737C90.915 72.6615 90.9642 71.9425 91.8577 71.0626C92.0885 70.8353 92.3179 70.6061 92.5562 70.3867C93.5772 69.4466 94.5461 68.4539 95.5256 67.4716C95.7567 67.2397 95.6848 67.027 95.5959 66.799C94.8696 64.9366 94.8012 63.0342 95.3557 61.1322C95.7831 59.666 96.5335 58.3588 97.6119 57.2543C99.1509 55.6781 101.053 54.883 103.21 54.6294C105.085 54.4089 106.843 54.8077 108.455 55.7469C110.14 56.7279 111.377 58.1588 112.206 59.9168C112.718 61.0042 112.829 62.1934 112.889 63.1146ZM112.046 63.4254C112.03 58.8631 108.521 55.323 103.96 55.4104C99.3485 55.4987 95.9815 58.8664 95.8435 63.5424C95.7114 68.0185 99.4218 71.7144 104.261 71.5721C108.285 71.4538 112.141 68.0115 112.046 63.4254ZM93.9627 74.5389C94.3955 74.5065 94.6926 74.3184 94.9469 74.0611C95.8112 73.1862 96.6389 72.2749 97.5747 71.4719C97.8203 71.2611 98.0174 71.0029 98.214 70.744C98.3259 70.5967 98.2989 70.558 98.1764 70.4272C97.5357 69.743 96.8852 69.0623 96.3125 68.3227C96.0716 68.0117 95.9677 68.1451 95.8015 68.3052C95.0585 69.0212 94.3816 69.8028 93.604 70.486C93.1182 70.9128 92.6714 71.3843 92.2121 71.8409C91.9664 72.0852 91.8214 72.4361 91.9782 72.7141C92.3828 73.4312 92.9607 74.0134 93.6637 74.4554C93.762 74.5174 93.8966 74.5217 93.9627 74.5389Z" fill="#34343F"/>
<path d="M7.77635 22.6972C7.6656 21.7023 8.06173 20.6466 8.76899 19.7777C9.51913 18.8561 10.4526 18.1079 11.7336 17.9802C12.9698 17.8569 14.175 17.8819 15.2385 18.6297C17.2505 20.0442 18.2408 22.3665 16.9268 24.8C16.7368 25.1517 16.7924 25.3666 17.1094 25.6186C17.6022 26.0105 18.0399 26.4711 18.5106 26.8917C18.7431 27.0995 18.7526 27.3082 18.5607 27.5333C18.3727 27.7537 18.1496 27.8783 17.8801 27.6666C17.3834 27.2763 16.8723 26.8984 16.4456 26.4305C16.1803 26.1395 16.0075 26.1493 15.6904 26.4047C13.2957 28.3338 9.98532 27.6535 8.52111 25.2626C7.91283 24.2696 7.77811 23.7864 7.77635 22.6972ZM12.5591 19.185C10.5506 19.1601 9.06175 20.5827 8.98366 22.4909C8.87842 25.063 10.8316 26.2638 12.5547 26.2985C14.3103 26.3339 16.2896 25.1308 16.2856 22.6843C16.2822 20.5368 14.8925 19.2141 12.5591 19.185Z" fill="#34343F"/>
<path d="M19.4471 48.996C14.9903 48.996 10.5336 48.9959 6.07686 48.9963C5.78344 48.9963 5.49047 48.9943 5.20376 48.9202C4.98161 48.8628 4.85261 48.7194 4.86152 48.4892C4.86999 48.271 5.05475 48.2269 5.22246 48.1974C5.37291 48.1709 5.52852 48.1643 5.68183 48.1641C14.1635 48.1552 22.6451 48.1509 31.1268 48.1356C31.9567 48.1342 32.7867 48.0105 33.6131 48.1941C33.851 48.247 34.0856 48.2784 34.0622 48.6009C34.0412 48.8885 33.8344 48.9298 33.6012 48.9393C33.278 48.9526 32.9553 48.9897 32.6323 48.9899C28.2372 48.9933 23.8421 48.9922 19.4471 48.9922C19.4471 48.9936 19.4471 48.9948 19.4471 48.996Z" fill="#34343F"/>
<path d="M17.9671 42.8857C13.9859 42.8857 10.0048 42.8855 6.02356 42.8862C5.76071 42.8862 5.49699 42.8908 5.24482 42.8038C4.99187 42.7166 4.87365 42.5301 4.90939 42.2666C4.94788 41.9827 5.17124 42.0177 5.37371 42.0178C11.7465 42.022 18.1194 42.0389 24.4921 42.0202C26.4328 42.0145 28.3732 41.9226 30.3129 42.051C30.4359 42.0591 30.5607 42.0598 30.6809 42.0832C30.8384 42.114 30.9815 42.1863 31.0119 42.3631C31.0457 42.5593 30.9219 42.6867 30.7717 42.7753C30.5345 42.9154 30.2638 42.8901 30.0032 42.8903C25.9912 42.8925 21.9792 42.8919 17.9671 42.8919C17.9671 42.8898 17.9671 42.8878 17.9671 42.8857Z" fill="#34343F"/>
<path d="M32.5847 6.38035C35.684 6.38024 38.7833 6.37991 41.8825 6.38101C42.1283 6.38112 42.3769 6.36319 42.6132 6.45997C42.7656 6.52233 42.8852 6.6091 42.8817 6.79408C42.8779 6.99435 42.7622 7.11785 42.5784 7.14677C42.3051 7.18966 42.0273 7.22606 41.7514 7.22617C35.5684 7.23046 29.3852 7.23079 23.2022 7.22518C22.8629 7.22485 22.3855 7.2926 22.3985 6.78088C22.4104 6.30787 22.8683 6.38387 23.1946 6.38332C26.3245 6.37837 29.4546 6.38046 32.5847 6.38035Z" fill="#34343F"/>
<path d="M15.6061 37.2517C12.3817 37.2517 9.15719 37.2517 5.93281 37.2517C5.85572 37.2517 5.7784 37.254 5.70142 37.2507C5.42703 37.2388 5.18211 37.1455 5.20708 36.831C5.23017 36.5411 5.473 36.434 5.74431 36.4334C10.5561 36.4225 15.3679 36.4222 20.1795 36.4002C21.7671 36.393 23.3536 36.5654 24.9423 36.4168C25.1521 36.3972 25.3733 36.4467 25.5828 36.4936C25.8252 36.5477 25.9469 36.7185 25.9219 36.971C25.897 37.2222 25.6983 37.2429 25.5105 37.2451C24.8163 37.253 24.1221 37.2533 23.4279 37.2534C20.8206 37.2542 18.2133 37.2537 15.606 37.2537C15.6061 37.2529 15.6061 37.2522 15.6061 37.2517Z" fill="#34343F"/>
<path d="M99.914 86.1522C97.0592 86.1522 94.2045 86.151 91.3496 86.1538C91.0417 86.1542 90.7334 86.1919 90.4258 86.1863C90.1542 86.1813 89.9183 86.0642 89.9267 85.7568C89.9354 85.4412 90.1553 85.314 90.4622 85.3137C96.5868 85.308 102.711 85.3007 108.836 85.2935C109.098 85.2932 109.363 85.2855 109.612 85.3852C109.779 85.452 109.923 85.552 109.875 85.7622C109.829 85.9625 109.759 86.1568 109.496 86.1557C109.342 86.1551 109.188 86.1498 109.034 86.1498C105.994 86.1494 102.954 86.1494 99.9137 86.1494C99.914 86.1504 99.914 86.1513 99.914 86.1522Z" fill="#34343F"/>
<path d="M62.4629 0.00208875C64.9207 -0.0453108 67.1032 0.720449 69.0126 2.24779C70.1719 3.17511 70.8605 4.45765 71.516 5.75492C71.5797 5.88095 71.5786 5.99368 71.473 6.0898C71.3508 6.20109 71.2115 6.24178 71.0471 6.17954C70.7823 6.07935 70.6086 5.8727 70.5081 5.63285C69.3595 2.89181 67.1395 1.57771 64.3625 1.01464C62.6079 0.658864 60.8667 0.838234 59.1365 1.2127C58.9407 1.25504 58.7471 1.30728 58.5511 1.34841C58.3045 1.40021 58.081 1.38107 57.9883 1.09624C57.8921 0.80062 58.0792 0.67085 58.3136 0.58166C59.056 0.299022 59.8422 0.21984 60.6195 0.119542C61.2288 0.0411294 61.848 0.0384907 62.4629 0.00208875Z" fill="#34343F"/>
<path d="M103.652 79.9895C106.106 79.9895 108.559 79.9875 111.012 79.992C111.322 79.9925 111.771 79.9079 111.777 80.3514C111.783 80.7869 111.333 80.7481 111.019 80.7485C106.081 80.7553 101.144 80.7553 96.2064 80.7543C96.0688 80.7543 95.9286 80.7385 95.7941 80.7095C95.6011 80.6677 95.5135 80.5207 95.5071 80.3366C95.4997 80.1252 95.6526 80.0424 95.8306 80.0092C95.9354 79.9896 96.0455 79.995 96.1533 79.995C98.6529 79.9943 101.153 79.9944 103.652 79.9944C103.652 79.9928 103.652 79.9911 103.652 79.9895Z" fill="#34343F"/>
<path d="M7.98614 6.46647C8.01924 5.58744 8.72397 4.84389 9.50677 4.86203C10.2227 4.87864 11.0403 5.65991 11.0148 6.30305C10.9856 7.0367 10.132 7.90935 9.46399 7.88835C8.81162 7.86778 7.96404 7.05231 7.98614 6.46647ZM10.0841 6.35067C10.1 5.90725 9.92776 5.70885 9.51206 5.69169C9.10778 5.67498 8.8324 5.95091 8.82459 6.38036C8.81689 6.80982 8.99693 7.00272 9.42363 7.02207C9.88751 7.04308 10.0659 6.86162 10.0841 6.35067Z" fill="#34343F"/>
<path d="M4.98243 7.89571C4.28838 7.88515 3.5699 7.07342 3.58156 6.31294C3.59333 5.54432 4.31774 4.86863 5.11243 4.88501C5.76711 4.89854 6.58698 5.71445 6.57092 6.33625C6.55256 7.04197 5.67209 7.90627 4.98243 7.89571ZM4.37636 6.41522C4.3801 6.82949 4.58091 7.0203 5.01587 7.02261C5.47722 7.02514 5.6667 6.82026 5.66252 6.32328C5.65966 5.98015 5.32116 5.68949 4.93591 5.69949C4.605 5.70818 4.37262 6.00534 4.37636 6.41522Z" fill="#34343F"/>
<path d="M12.4609 6.45404C12.4388 5.66529 13.1038 4.91823 13.8476 4.89623C14.5866 4.87435 15.4144 5.58303 15.4518 6.2695C15.4877 6.92693 14.6514 7.85678 13.9962 7.8879C13.3005 7.92079 12.4805 7.15513 12.4609 6.45404ZM13.9524 7.02877C14.3994 7.0247 14.5688 6.80629 14.5831 6.21583C14.5894 5.95717 14.2181 5.68817 13.8736 5.70169C13.5116 5.71599 13.2739 6.00479 13.2725 6.43182C13.2713 6.86337 13.4648 7.03317 13.9524 7.02877Z" fill="#34343F"/>
<path d="M53.1468 34.4698C53.136 35.6229 52.5915 36.5552 51.9036 37.4244C51.7906 37.5673 51.641 37.6401 51.46 37.5178C51.2815 37.3973 51.2493 37.223 51.2856 37.0296C51.3214 36.8386 51.4708 36.7139 51.5808 36.5684C51.9232 36.1158 52.1603 35.6278 52.1392 35.0425C52.1267 34.6956 52.2833 34.3856 52.3644 34.0593C52.4237 33.8207 52.5298 33.6095 52.8295 33.6562C53.1045 33.6991 53.1359 33.9229 53.1459 34.1472C53.1508 34.2545 53.1468 34.3623 53.1468 34.4698Z" fill="#34343F"/>
<path d="M106.912 43.9081C104.368 43.9081 101.824 43.9099 99.2809 43.905C99.0363 43.9045 98.7886 43.8777 98.548 43.8325C98.3319 43.7919 98.1745 43.6491 98.2045 43.4117C98.2335 43.1823 98.4315 43.1412 98.625 43.1365C99.3644 43.1185 100.104 43.0804 100.843 43.0946C105.19 43.1779 109.537 43.1043 113.883 43.1247C114.328 43.1268 114.774 43.0522 115.218 43.1412C115.408 43.179 115.601 43.2253 115.599 43.4644C115.596 43.6902 115.477 43.8415 115.233 43.8594C115.003 43.8763 114.773 43.9077 114.543 43.9081C111.999 43.9116 109.455 43.9102 106.912 43.9102C106.912 43.9096 106.912 43.9088 106.912 43.9081Z" fill="#34343F"/>
<path d="M57.5435 12.5571C57.657 13.8681 57.3298 15.0053 56.7358 16.0796C56.6464 16.2412 56.5563 16.4027 56.4659 16.5638C56.387 16.7043 56.3429 16.8358 56.577 16.8465C56.7823 16.856 56.8987 16.9293 56.8658 17.1582C56.8347 17.3754 56.75 17.5576 56.513 17.5817C56.156 17.618 55.7824 17.6201 55.5304 17.3169C55.2939 17.0325 55.5177 16.7732 55.6427 16.5111C56.2193 15.3021 56.852 14.1107 56.7578 12.7013C56.731 12.3001 56.6954 11.9044 56.5989 11.5135C56.5336 11.249 56.5744 10.9924 56.8725 10.9177C57.1979 10.8362 57.3477 11.0415 57.3977 11.3449C57.4676 11.7707 57.55 12.1944 57.5435 12.5571Z" fill="#34343F"/>
<path d="M56.9007 19.6672C56.479 19.6562 56.0726 19.5766 55.6721 19.4643C55.3894 19.3851 55.2337 19.1919 55.3504 18.9137C55.4523 18.6706 55.5822 18.5596 55.9499 18.6873C56.6036 18.9143 57.3138 18.9305 57.9123 18.4354C58.0894 18.2888 58.2434 18.113 58.425 17.9728C58.5981 17.8392 58.8001 17.8281 58.9799 17.9673C59.1358 18.088 59.1814 18.2801 59.0503 18.4148C58.4524 19.0303 57.8672 19.6831 56.9007 19.6672Z" fill="#34343F"/>
<path d="M25.7211 102.536C25.8967 102.368 26.0981 102.22 26.2418 102.028C26.4556 101.743 26.6252 101.801 26.8969 101.969C28.0149 102.661 28.6901 103.798 29.6464 104.654C30.6292 105.534 31.5366 106.5 32.449 107.455C33.2997 108.346 34.2271 109.164 34.991 110.137C35.1888 110.389 35.1617 111 34.8746 111.375C34.359 112.047 33.827 112.709 33.1483 113.232C32.6021 113.653 31.6887 113.693 31.1028 113.284C30.75 113.038 30.3869 112.781 30.1069 112.46C28.9713 111.159 27.6847 110.006 26.5065 108.746C25.9094 108.107 25.2549 107.516 24.6308 106.898C24.3021 106.573 23.9399 106.283 23.6548 105.914C23.2017 105.328 23.2113 104.989 23.699 104.448C23.798 104.339 23.9348 104.253 23.9624 103.997C21.5832 105.452 19.1243 105.741 16.5578 104.724C14.6401 103.964 13.1872 102.644 12.28 100.817C10.9014 98.0402 11.0972 93.9588 14.0095 91.316C16.9298 88.6658 21.3456 88.3381 24.5279 90.8753C26.2967 92.2855 27.355 94.1774 27.5655 96.4472C27.7746 98.703 27.1265 100.733 25.5954 102.461C25.6374 102.486 25.6793 102.511 25.7211 102.536ZM12.3114 97.1488C12.1974 101.275 15.4953 104.461 19.4943 104.518C23.5801 104.575 26.7247 101.341 26.7591 97.1941C26.792 93.2384 23.598 89.8654 19.3135 89.9609C15.6576 90.0423 12.166 93.0819 12.3114 97.1488ZM31.9354 112.837C32.2818 112.786 32.6038 112.681 32.8598 112.441C33.3091 112.018 33.7348 111.579 34.0689 111.05C34.2885 110.703 34.2719 110.431 33.9857 110.147C32.9139 109.084 31.8556 108.008 30.8046 106.925C29.5303 105.611 28.1923 104.359 26.9048 103.058C26.6396 102.789 26.4455 102.839 26.2552 103.06C25.8201 103.565 25.2763 103.954 24.8254 104.439C24.5958 104.686 24.1812 104.855 24.1574 105.174C24.1306 105.533 24.6011 105.669 24.8152 105.94C25.4847 106.786 26.3643 107.423 27.0995 108.213C27.7992 108.965 28.588 109.657 29.289 110.409C29.9807 111.151 30.7349 111.825 31.4252 112.565C31.5711 112.721 31.7302 112.816 31.9354 112.837Z" fill="#34343F"/>
<path d="M28.8643 81.7463C30.8989 81.7463 32.9334 81.7461 34.968 81.7466C35.1374 81.7466 35.3075 81.7442 35.4763 81.7564C35.6733 81.7706 35.8525 81.8365 35.8676 82.0679C35.8815 82.2834 35.743 82.4154 35.5487 82.4659C35.4024 82.504 35.2454 82.5153 35.0931 82.5155C30.9007 82.522 26.7083 82.5263 22.516 82.5267C22.3647 82.5267 22.2092 82.4992 22.0635 82.4574C21.8913 82.4079 21.833 82.2632 21.844 82.094C21.8551 81.9221 21.9424 81.7971 22.1158 81.7661C22.2509 81.7418 22.3913 81.7398 22.5295 81.7397C24.641 81.7382 26.7527 81.7386 28.8642 81.7386C28.8643 81.7413 28.8643 81.7438 28.8643 81.7463Z" fill="#34343F"/>
<path d="M14.6387 81.1967C15.083 81.192 15.6177 81.6471 15.6374 82.0466C15.6579 82.464 15.0883 83.0646 14.6665 83.0701C14.0863 83.0778 13.6049 82.6205 13.6155 82.0716C13.6239 81.6322 14.1268 81.202 14.6387 81.1967Z" fill="#34343F"/>
<path d="M16.531 82.1452C16.5182 81.629 16.9482 81.2174 17.5172 81.2016C17.9365 81.1898 18.4893 81.7183 18.4993 82.1405C18.5081 82.5122 17.9572 83.0808 17.5711 83.0984C17.0375 83.1227 16.5442 82.6708 16.531 82.1452Z" fill="#34343F"/>
<path d="M12.7145 82.024C12.7128 82.5242 12.195 83.0683 11.72 83.0691C11.2193 83.07 10.7088 82.5772 10.7208 82.1044C10.731 81.6987 11.2931 81.2088 11.7545 81.2035C12.2136 81.1982 12.716 81.6276 12.7145 82.024Z" fill="#34343F"/>
<path d="M111.057 63.706C110.855 65.605 110.067 67.3866 108.418 68.73C107.662 69.3466 106.832 69.8414 105.91 70.1754C105.72 70.2442 105.532 70.3018 105.33 70.3201C105.083 70.3424 104.904 70.2787 104.843 70.0131C104.781 69.7399 104.881 69.5609 105.151 69.4847C105.636 69.3472 106.114 69.2104 106.58 68.9919C107.245 68.6803 107.902 68.3639 108.357 67.7881C109.439 66.4215 110.407 64.9492 110.16 63.1158C109.959 61.6227 109.609 60.1818 108.388 59.0271C107.388 58.0815 106.248 57.6227 105 57.2699C104.753 57.2001 104.471 57.1483 104.518 56.8256C104.569 56.4805 104.876 56.4866 105.139 56.5232C107.009 56.7826 108.462 57.7451 109.605 59.212C110.591 60.4774 110.976 61.9477 111.057 63.706Z" fill="#34343F"/>
<path d="M104.743 68.8677C104.73 68.5535 104.952 68.4831 105.184 68.4222C105.828 68.2527 106.471 68.055 106.945 67.5681C107.156 67.3512 107.383 67.1931 107.638 67.0559C107.717 67.0131 107.81 66.9815 107.9 66.9736C108.087 66.957 108.305 66.9746 108.408 67.1241C108.526 67.2947 108.337 67.4475 108.227 67.5504C107.354 68.3715 106.345 68.9717 105.188 69.2993C104.838 69.3984 104.793 69.1077 104.743 68.8677Z" fill="#34343F"/>
<path d="M24.6218 97.4679C24.6711 94.6129 22.048 91.9794 19.3949 92.1785C17.2637 92.3385 15.7868 93.1232 15.058 95.185C14.9864 95.3876 14.8929 95.585 14.7877 95.7724C14.6985 95.9311 14.5888 96.123 14.3627 96.0413C14.1319 95.9579 14.0382 95.76 14.0908 95.5173C14.1962 95.0304 14.4 94.5806 14.6416 94.1484C16.4573 90.9006 20.6945 90.6612 23.1256 92.6886C24.6845 93.9886 25.5009 95.6656 25.4358 97.6682C25.3649 99.85 24.2897 101.521 22.4499 102.711C21.3417 103.428 20.1335 103.685 18.838 103.635C18.7764 103.632 18.7139 103.632 18.6535 103.622C18.3664 103.571 18.134 103.422 18.1529 103.114C18.1732 102.784 18.4553 102.71 18.7328 102.723C19.5083 102.76 20.2769 102.708 21.0195 102.486C21.5436 102.33 22.0747 102.149 22.383 101.629C22.4119 101.581 22.4708 101.541 22.5248 101.518C23.7559 101.004 24.0915 99.8545 24.4701 98.7483C24.6145 98.3262 24.6479 97.8722 24.6218 97.4679Z" fill="#34343F"/>
<path d="M17.897 92.7821C18.0456 92.7778 18.183 92.8155 18.2462 92.9583C18.3211 93.1275 18.236 93.2733 18.0983 93.356C17.5239 93.701 17.0164 94.1178 16.6041 94.65C16.5008 94.7832 16.3546 94.8295 16.1944 94.7237C16.0646 94.6379 15.9352 94.5617 15.9688 94.3637C16.063 93.8102 17.3182 92.775 17.897 92.7821Z" fill="#34343F"/>
<path d="M21.6202 93.2011C21.1821 93.4827 20.8236 93.6323 20.3601 93.5013C20.0114 93.4028 19.6311 93.4199 19.2667 93.3721C19.0792 93.3475 18.8808 93.2905 18.9041 93.044C18.9252 92.8205 19.0174 92.6189 19.2811 92.5913C19.8107 92.5359 20.3424 92.4827 20.842 92.7419C20.9073 92.7758 21.0195 92.8202 21.0204 92.8617C21.0281 93.2264 21.3197 93.1718 21.6202 93.2011Z" fill="#34343F"/>
</svg>
